<svg width="32" height="32" viewBox="0 0 32 32" fill="none" xmlns="http://www.w3.org/2000/svg">
<path fill-rule="evenodd" clip-rule="evenodd" d="M2 16C2 15.7348 2.10536 15.4804 2.29289 15.2929C2.48043 15.1053 2.73478 15 3 15H26.586L20.292 8.70798C20.1042 8.52021 19.9987 8.26553 19.9987 7.99998C19.9987 7.73443 20.1042 7.47975 20.292 7.29198C20.4798 7.10421 20.7344 6.99872 21 6.99872C21.2656 6.99872 21.5202 7.10421 21.708 7.29198L29.708 15.292C29.8011 15.3849 29.875 15.4952 29.9254 15.6167C29.9758 15.7382 30.0018 15.8684 30.0018 16C30.0018 16.1315 29.9758 16.2618 29.9254 16.3832C29.875 16.5047 29.8011 16.6151 29.708 16.708L21.708 24.708C21.5202 24.8958 21.2656 25.0012 21 25.0012C20.7344 25.0012 20.4798 24.8958 20.292 24.708C20.1042 24.5202 19.9987 24.2655 19.9987 24C19.9987 23.7344 20.1042 23.4798 20.292 23.292L26.586 17H3C2.73478 17 2.48043 16.8946 2.29289 16.7071C2.10536 16.5196 2 16.2652 2 16V16Z" fill="#505050"/>
</svg>
