<svg width="30" height="30" viewBox="0 0 30 30" fill="none" xmlns="http://www.w3.org/2000/svg">
<path d="M27.5 15.8333C27.3904 15.834 27.2816 15.813 27.1801 15.7715C27.0786 15.73 26.9862 15.6689 26.9084 15.5917L15 3.67501L3.09169 15.5917C2.93227 15.7282 2.72721 15.7995 2.51748 15.7914C2.30775 15.7833 2.1088 15.6964 1.96039 15.548C1.81197 15.3996 1.72503 15.2006 1.71693 14.9909C1.70883 14.7812 1.78017 14.5761 1.91669 14.4167L14.4167 1.91667C14.5728 1.76147 14.784 1.67435 15.0042 1.67435C15.2243 1.67435 15.4356 1.76147 15.5917 1.91667L28.0917 14.4167C28.2064 14.5337 28.284 14.6819 28.3149 14.8427C28.3459 15.0036 28.3287 15.17 28.2655 15.3212C28.2024 15.4723 28.0961 15.6015 27.96 15.6926C27.8238 15.7837 27.6638 15.8327 27.5 15.8333V15.8333Z" fill="#505050"/>
<path d="M15 6.49167L5 16.525V26.6667C5 27.1087 5.17559 27.5326 5.48816 27.8452C5.80072 28.1577 6.22464 28.3333 6.66667 28.3333H12.5V20H17.5V28.3333H23.3333C23.7754 28.3333 24.1993 28.1577 24.5118 27.8452C24.8244 27.5326 25 27.1087 25 26.6667V16.4667L15 6.49167Z" fill="#505050"/>
</svg>
