<svg width="27" height="28" viewBox="0 0 27 28" fill="none" xmlns="http://www.w3.org/2000/svg">
<path d="M13.353 1.88235C11.0371 1.88534 8.8168 2.89184 7.17921 4.68106C5.54162 6.47028 4.62042 8.89613 4.61769 11.4265C4.61491 13.4943 5.23311 15.506 6.37745 17.1529C6.37745 17.1529 6.61569 17.4957 6.6546 17.5451L13.353 26.1765L20.0545 17.5408C20.0895 17.4948 20.3285 17.1529 20.3285 17.1529L20.3293 17.1503C21.4731 15.5041 22.091 13.4933 22.0883 11.4265C22.0855 8.89613 21.1643 6.47028 19.5267 4.68106C17.8892 2.89184 15.6689 1.88534 13.353 1.88235V1.88235ZM13.353 14.8971C12.7247 14.8971 12.1106 14.6935 11.5882 14.3122C11.0659 13.9308 10.6587 13.3888 10.4183 12.7546C10.1779 12.1204 10.115 11.4226 10.2375 10.7494C10.3601 10.0762 10.6626 9.45777 11.1069 8.9724C11.5511 8.48703 12.1171 8.15648 12.7333 8.02257C13.3495 7.88866 13.9881 7.95739 14.5686 8.22007C15.149 8.48275 15.6451 8.92758 15.9941 9.49832C16.3432 10.0691 16.5295 10.7401 16.5295 11.4265C16.5284 12.3466 16.1934 13.2287 15.5979 13.8793C15.0024 14.5299 14.1951 14.8959 13.353 14.8971V14.8971Z" fill="black" fill-opacity="0.8"/>
</svg>
