<svg width="31" height="31" viewBox="0 0 31 31" fill="none" xmlns="http://www.w3.org/2000/svg">
<path d="M15.1471 1.88602C7.85638 1.88602 1.94485 7.79754 1.94485 15.0882C1.94485 22.3789 7.85638 28.2904 15.1471 28.2904C22.4377 28.2904 28.3493 22.3789 28.3493 15.0882C28.3493 7.79754 22.4377 1.88602 15.1471 1.88602ZM15.8042 21.4889L15.8101 22.4231C15.8101 22.5528 15.704 22.6618 15.5744 22.6618H14.7374C14.6078 22.6618 14.5017 22.5557 14.5017 22.4261V21.5007C11.8848 21.3062 10.653 19.8151 10.5204 18.1943C10.5086 18.0558 10.6176 17.9379 10.7561 17.9379H12.1176C12.2326 17.9379 12.3328 18.0204 12.3504 18.1324C12.5007 19.0666 13.2286 19.765 14.5341 19.9389V15.7336L13.8062 15.5479C12.265 15.1796 10.7974 14.2189 10.7974 12.2268C10.7974 10.0785 12.43 8.92326 14.5164 8.71993V7.74744C14.5164 7.61778 14.6225 7.51169 14.7522 7.51169H15.5803C15.7099 7.51169 15.816 7.61778 15.816 7.74744V8.71109C17.8347 8.91442 19.3494 10.0932 19.5262 11.9291C19.5409 12.0676 19.4319 12.1885 19.2904 12.1885H17.9673C17.8494 12.1885 17.7492 12.1 17.7345 11.9851C17.6166 11.1246 16.927 10.4232 15.8042 10.27V14.2277L16.5527 14.4016C18.4623 14.8731 19.7619 15.7866 19.7619 17.8318C19.7619 20.0508 18.1117 21.2885 15.8042 21.4889ZM12.6304 12.0912C12.6304 12.8397 13.0931 13.4203 14.0891 13.7798C14.2276 13.8358 14.3661 13.88 14.5312 13.9271V10.273C13.4437 10.4115 12.6304 11.0215 12.6304 12.0912ZM16.0636 16.0754C15.981 16.0578 15.8985 16.0371 15.8042 16.0106V19.9506C17.0596 19.8387 17.926 19.1491 17.926 17.9939C17.926 17.0892 17.4574 16.4998 16.0636 16.0754Z" fill="black" fill-opacity="0.8"/>
</svg>
