<svg width="32" height="32" viewBox="0 0 32 32" fill="none" xmlns="http://www.w3.org/2000/svg">
<path d="M14.6667 9.33333H20V12H14.6667V14.6667H17.3333C18.0406 14.6667 18.7189 14.9476 19.219 15.4477C19.719 15.9478 20 16.6261 20 17.3333V20C20 20.7072 19.719 21.3855 19.219 21.8856C18.7189 22.3857 18.0406 22.6667 17.3333 22.6667H12V20H17.3333V17.3333H14.6667C13.9594 17.3333 13.2811 17.0524 12.781 16.5523C12.281 16.0522 12 15.3739 12 14.6667V12C12 11.2928 12.281 10.6145 12.781 10.1144C13.2811 9.61428 13.9594 9.33333 14.6667 9.33333ZM6.66667 4H25.3333C26.0406 4 26.7189 4.28095 27.219 4.78105C27.719 5.28115 28 5.95942 28 6.66667V25.3333C28 26.0406 27.719 26.7189 27.219 27.219C26.7189 27.719 26.0406 28 25.3333 28H6.66667C5.95942 28 5.28115 27.719 4.78105 27.219C4.28095 26.7189 4 26.0406 4 25.3333V6.66667C4 5.95942 4.28095 5.28115 4.78105 4.78105C5.28115 4.28095 5.95942 4 6.66667 4V4ZM6.66667 6.66667V25.3333H25.3333V6.66667H6.66667Z" fill="#505050"/>
</svg>
